0
SECTION
2
HEADER
9
$INSUNITS
70
4
9
$ACADVER
1
AC1014
9
$HANDSEED
5
FFFF
0
ENDSEC
0
SECTION
2
TABLES
0
TABLE
2
VPORT
5
8
100
AcDbSymbolTable
0
ENDTAB
0
TABLE
2
LTYPE
5
5
100
AcDbSymbolTable
0
LTYPE
5
14
100
AcDbSymbolTableRecord
100
AcDbLinetypeTableRecord
2
BYBLOCK
70
0
0
LTYPE
5
15
100
AcDbSymbolTableRecord
100
AcDbLinetypeTableRecord
2
BYLAYER
70
0
0
ENDTAB
0
TABLE
2
LAYER
5
2
100
AcDbSymbolTable
70
2
0
LAYER
5
50
100
AcDbSymbolTableRecord
100
AcDbLayerTableRecord
2
0
70
0
6
CONTINUOUS
0
ENDTAB
0
TABLE
2
STYLE
5
3
100
AcDbSymbolTable
70
1
0
STYLE
5
11
100
AcDbSymbolTableRecord
100
AcDbTextStyleTableRecord
2
STANDARD
70
0
0
ENDTAB
0
TABLE
2
VIEW
5
6
100
AcDbSymbolTable
70
0
0
ENDTAB
0
TABLE
2
UCS
5
7
100
AcDbSymbolTable
70
0
0
ENDTAB
0
TABLE
2
APPID
5
9
100
AcDbSymbolTable
70
2
0
APPID
5
12
100
AcDbSymbolTableRecord
100
AcDbRegAppTableRecord
2
ACAD
70
0
0
ENDTAB
0
TABLE
2
DIMSTYLE
5
A
100
AcDbSymbolTable
70
1
0
ENDTAB
0
TABLE
2
BLOCK_RECORD
5
1
100
AcDbSymbolTable
70
1
0
BLOCK_RECORD
5
1F
100
AcDbSymbolTableRecord
100
AcDbBlockTableRecord
2
*MODEL_SPACE
0
BLOCK_RECORD
5
1B
100
AcDbSymbolTableRecord
100
AcDbBlockTableRecord
2
*PAPER_SPACE
0
ENDTAB
0
ENDSEC
0
SECTION
2
BLOCKS
0
BLOCK
5
20
100
AcDbEntity
100
AcDbBlockBegin
2
*MODEL_SPACE
0
ENDBLK
5
21
100
AcDbEntity
100
AcDbBlockEnd
0
BLOCK
5
1C
100
AcDbEntity
100
AcDbBlockBegin
2
*PAPER_SPACE
0
ENDBLK
5
1D
100
AcDbEntity
100
AcDbBlockEnd
0
ENDSEC
0
SECTION
2
ENTITIES
0
LINE
5
100
100
AcDbEntity
8
0
100
AcDbLine
10
51.5
20
-201.5
30
0
11
51.5
21
-574
31
0
0
CIRCLE
5
101
100
AcDbEntity
8
0
100
AcDbCircle
10
58.864003727403222
20
-387.75000000000006
30
0
40
2.5
210
0
220
-0
230
1
0
CIRCLE
5
102
100
AcDbEntity
8
0
100
AcDbCircle
10
58.864003727403222
20
-230.35187992097235
30
0
40
2.500000000000008
210
0
220
-0
230
1
0
LINE
5
103
100
AcDbEntity
8
0
100
AcDbLine
10
70.640485392204965
20
-201.5
30
0
11
51.5
21
-201.5
31
0
0
LINE
5
104
100
AcDbEntity
8
0
100
AcDbLine
10
70.640485392204965
20
-179.5
30
0
11
70.640485392204965
21
-201.5
31
0
0
LINE
5
105
100
AcDbEntity
8
0
100
AcDbLine
10
70.640485392204965
20
-179.5
30
0
11
221.14048539220499
21
-179.5
31
0
0
LINE
5
106
100
AcDbEntity
8
0
100
AcDbLine
10
221.14048539220499
20
-179.5
30
0
11
221.14048539220499
21
-286.5
31
0
0
CIRCLE
5
107
100
AcDbEntity
8
0
100
AcDbCircle
10
200.34517013897673
20
-188.16779713536096
30
0
40
2.50000000000002
210
0
220
-0
230
1
0
CIRCLE
5
108
100
AcDbEntity
8
0
100
AcDbCircle
10
200.34517013897673
20
-275.01311556578236
30
0
40
2.500000000000008
210
0
220
-0
230
1
0
LINE
5
109
100
AcDbEntity
8
0
100
AcDbLine
10
221.14048539220499
20
-286.5
30
0
11
325.14048539220494
21
-286.5
31
0
0
LINE
5
110
100
AcDbEntity
8
0
100
AcDbLine
10
325.14048539220494
20
-286.5
30
0
11
325.14048539220477
21
-179.85207791149989
31
0
0
LINE
5
111
100
AcDbEntity
8
0
100
AcDbLine
10
325.14048539220477
20
-179.85207791149989
30
0
11
475.64048539220482
21
-179.85207791149989
31
0
0
LINE
5
112
100
AcDbEntity
8
0
100
AcDbLine
10
475.64048539220482
20
-201.5
30
0
11
475.64048539220482
21
-179.85207791149989
31
0
0
LINE
5
113
100
AcDbEntity
8
0
100
AcDbLine
10
495
20
-201.5
30
0
11
475.64048539220482
21
-201.5
31
0
0
LINE
5
114
100
AcDbEntity
8
0
100
AcDbLine
10
495
20
-574
30
0
11
495
21
-201.5
31
0
0
CIRCLE
5
115
100
AcDbEntity
8
0
100
AcDbCircle
10
487.41696705700679
20
-230.35187992097235
30
0
40
2.500000000000008
210
0
220
-0
230
1
0
CIRCLE
5
116
100
AcDbEntity
8
0
100
AcDbCircle
10
487.41696705700679
20
-387.75000000000006
30
0
40
2.5
210
0
220
-0
230
1
0
CIRCLE
5
117
100
AcDbEntity
8
0
100
AcDbCircle
10
487.41696705700679
20
-545.14812007902776
30
0
40
2.500000000000008
210
0
220
-0
230
1
0
LINE
5
118
100
AcDbEntity
8
0
100
AcDbLine
10
406
20
-574
30
0
11
495
21
-574
31
0
0
LINE
5
119
100
AcDbEntity
8
0
100
AcDbLine
10
406
20
-705
30
0
11
406
21
-574
31
0
0
CIRCLE
5
120
100
AcDbEntity
8
0
100
AcDbCircle
10
386.20666098080869
20
-585.91873499050121
30
0
40
2.5000000000000049
210
0
220
-0
230
1
0
CIRCLE
5
121
100
AcDbEntity
8
0
100
AcDbCircle
10
386.20666098080869
20
-696.9577718868577
30
0
40
2.500000000000004
210
0
220
-0
230
1
0
LINE
5
122
100
AcDbEntity
8
0
100
AcDbLine
10
140.5
20
-705
30
0
11
406
21
-705
31
0
0
CIRCLE
5
123
100
AcDbEntity
8
0
100
AcDbCircle
10
160.07430980360127
20
-696.9577718868577
30
0
40
2.500000000000004
210
0
220
-0
230
1
0
LINE
5
124
100
AcDbEntity
8
0
100
AcDbLine
10
140.5
20
-574
30
0
11
140.5
21
-705
31
0
0
CIRCLE
5
125
100
AcDbEntity
8
0
100
AcDbCircle
10
160.07430980360127
20
-585.91873499050121
30
0
40
2.5000000000000049
210
0
220
-0
230
1
0
LINE
5
126
100
AcDbEntity
8
0
100
AcDbLine
10
51.5
20
-574
30
0
11
140.5
21
-574
31
0
0
CIRCLE
5
127
100
AcDbEntity
8
0
100
AcDbCircle
10
58.864003727403222
20
-545.14812007902776
30
0
40
2.500000000000008
210
0
220
-0
230
1
0
CIRCLE
5
128
100
AcDbEntity
8
0
100
AcDbCircle
10
345.93580064543318
20
-275.01311556578236
30
0
40
2.500000000000008
210
0
220
-0
230
1
0
CIRCLE
5
129
100
AcDbEntity
8
0
100
AcDbCircle
10
345.93580064543318
20
-188.16779713536096
30
0
40
2.50000000000002
210
0
220
-0
230
1
0
ENDSEC
0
SECTION
2
OBJECTS
0
DICTIONARY
5
C
100
AcDbDictionary
3
ACAD_GROUP
350
D
3
ACAD_MLINESTYLE
350
17
0
DICTIONARY
5
D
100
AcDbDictionary
0
DICTIONARY
5
1A
330
C
100
AcDbDictionary
0
DICTIONARY
5
17
100
AcDbDictionary
0
ENDSEC
0
EOF
