0
SECTION
2
HEADER
9
$INSUNITS
70
4
9
$ACADVER
1
AC1014
9
$HANDSEED
5
FFFF
0
ENDSEC
0
SECTION
2
TABLES
0
TABLE
2
VPORT
5
8
100
AcDbSymbolTable
0
ENDTAB
0
TABLE
2
LTYPE
5
5
100
AcDbSymbolTable
0
LTYPE
5
14
100
AcDbSymbolTableRecord
100
AcDbLinetypeTableRecord
2
BYBLOCK
70
0
0
LTYPE
5
15
100
AcDbSymbolTableRecord
100
AcDbLinetypeTableRecord
2
BYLAYER
70
0
0
ENDTAB
0
TABLE
2
LAYER
5
2
100
AcDbSymbolTable
70
2
0
LAYER
5
50
100
AcDbSymbolTableRecord
100
AcDbLayerTableRecord
2
0
70
0
6
CONTINUOUS
0
ENDTAB
0
TABLE
2
STYLE
5
3
100
AcDbSymbolTable
70
1
0
STYLE
5
11
100
AcDbSymbolTableRecord
100
AcDbTextStyleTableRecord
2
STANDARD
70
0
0
ENDTAB
0
TABLE
2
VIEW
5
6
100
AcDbSymbolTable
70
0
0
ENDTAB
0
TABLE
2
UCS
5
7
100
AcDbSymbolTable
70
0
0
ENDTAB
0
TABLE
2
APPID
5
9
100
AcDbSymbolTable
70
2
0
APPID
5
12
100
AcDbSymbolTableRecord
100
AcDbRegAppTableRecord
2
ACAD
70
0
0
ENDTAB
0
TABLE
2
DIMSTYLE
5
A
100
AcDbSymbolTable
70
1
0
ENDTAB
0
TABLE
2
BLOCK_RECORD
5
1
100
AcDbSymbolTable
70
1
0
BLOCK_RECORD
5
1F
100
AcDbSymbolTableRecord
100
AcDbBlockTableRecord
2
*MODEL_SPACE
0
BLOCK_RECORD
5
1B
100
AcDbSymbolTableRecord
100
AcDbBlockTableRecord
2
*PAPER_SPACE
0
ENDTAB
0
ENDSEC
0
SECTION
2
BLOCKS
0
BLOCK
5
20
100
AcDbEntity
100
AcDbBlockBegin
2
*MODEL_SPACE
0
ENDBLK
5
21
100
AcDbEntity
100
AcDbBlockEnd
0
BLOCK
5
1C
100
AcDbEntity
100
AcDbBlockBegin
2
*PAPER_SPACE
0
ENDBLK
5
1D
100
AcDbEntity
100
AcDbBlockEnd
0
ENDSEC
0
SECTION
2
ENTITIES
0
LWPOLYLINE
5
100
100
AcDbEntity
8
0
100
AcDbPolyline
90
74
70
1
43
0.0
10
49.999999999999993
20
85
42
-0.4142135623730977
10
51
20
86
10
88.899999999999977
20
86
42
-0.41421356237310542
10
89.899999999999963
20
85
10
89.899999999999977
20
80
10
89.61132486540518
20
79.999999999999986
10
86.899999999999977
20
80
10
86.899999999999977
20
72
10
89.61132486540518
20
72
10
89.899999999999977
20
72
10
89.899999999999977
20
65.999999999999986
10
92
20
65.999999999999986
42
-0.4142135623730977
10
92.999999999999986
20
64.999999999999986
10
92.999999999999986
20
64.414213562373078
10
89.914213562373106
20
64.414213562373078
42
0.99999999999999989
10
89.914213562373106
20
61.414213562373078
10
92.999999999999986
20
61.414213562373078
10
92.999999999999986
20
48.175211875607289
10
90.5
20
48.175211875607289
42
0.99999999999999989
10
90.5
20
45.175211875607282
10
92.999999999999986
20
45.175211875607282
10
92.999999999999986
20
44.5
42
0.41421356237309243
10
93.999999999999986
20
43.500000000000014
10
105.99999999999997
20
43.500000000000007
42
0.41421356237309509
10
106.99999999999997
20
44.500000000000014
10
106.99999999999997
20
45.175211875607282
10
109.5
20
45.175211875607282
42
0.99999999999999989
10
109.5
20
48.175211875607289
10
106.99999999999997
20
48.175211875607289
10
107
20
61.414213562373078
10
110.08578643762689
20
61.414213562373078
42
0.99999999999999989
10
110.08578643762689
20
64.414213562373078
10
107
20
64.414213562373078
10
107
20
64.999999999999986
42
-0.41421356237309243
10
107.99999999999999
20
65.999999999999972
10
110.09999999999998
20
65.999999999999986
10
110.09999999999998
20
72
10
110.38867513459479
20
72
10
113.09999999999999
20
72
10
113.09999999999999
20
79.999999999999986
10
110.38867513459479
20
80
10
110.09999999999998
20
80
10
110.09999999999998
20
85
42
-0.41421356237309509
10
111.09999999999998
20
86
10
149
20
86
42
-0.41421356237309509
10
150
20
85
10
150
20
64.414213562373106
10
146.91421356237311
20
64.414213562373106
42
0.99999999999999989
10
146.91421356237311
20
61.414213562373092
10
150
20
61.414213562373092
10
150
20
34
10
147.35566243270259
20
34
42
0.99999999999999989
10
147.35566243270259
20
30.999999999999996
10
150
20
30.999999999999996
10
150
20
3.5857864376269077
10
146.91421356237311
20
3.5857864376269077
42
0.99999999999999989
10
146.91421356237311
20
0.58578643762690064
10
150
20
0.58578643762690064
10
150
20
-20.000000000000018
42
-0.4142135623730937
10
149
20
-21.000000000000018
10
51
20
-21.000000000000014
42
-0.41421356237309509
10
50
20
-20.000000000000018
10
50
20
0.58578643762690064
10
53.085786437626901
20
0.58578643762690064
42
0.99999999999999989
10
53.085786437626901
20
3.5857864376269077
10
50
20
3.5857864376269077
10
50
20
30.999999999999979
10
52.5
20
30.999999999999979
42
0.99999999999999989
10
52.5
20
33.999999999999972
10
50
20
33.999999999999972
10
50
20
61.414213562373057
10
53.085786437626901
20
61.414213562373057
42
0.99999999999999989
10
53.085786437626901
20
64.414213562373064
10
50
20
64.414213562373064
0
CIRCLE
5
101
100
AcDbEntity
8
0
100
AcDbCircle
10
122.49999999999999
20
76
30
0
40
4.0000000000000178
210
0
220
-0
230
1
0
CIRCLE
5
102
100
AcDbEntity
8
0
100
AcDbCircle
10
140
20
76
30
0
40
2.6499999999999995
210
0
220
0
230
1
0
CIRCLE
5
103
100
AcDbEntity
8
0
100
AcDbCircle
10
138.5
20
1.4999999999999858
30
0
40
1.5000000000000036
210
0
220
-0
230
1
0
CIRCLE
5
104
100
AcDbEntity
8
0
100
AcDbCircle
10
140
20
-11.000000000000014
30
0
40
2.6499999999999995
210
0
220
0
230
1
0
CIRCLE
5
105
100
AcDbEntity
8
0
100
AcDbCircle
10
59.999999999999986
20
-11.000000000000014
30
0
40
2.6499999999999995
210
0
220
0
230
1
0
CIRCLE
5
106
100
AcDbEntity
8
0
100
AcDbCircle
10
61.500000000000021
20
1.5000000000000036
30
0
40
1.5000000000000036
210
0
220
-0
230
1
0
CIRCLE
5
107
100
AcDbEntity
8
0
100
AcDbCircle
10
84.5
20
5.5000000000000249
30
0
40
1.6999999999999931
210
0
220
-0
230
1
0
CIRCLE
5
108
100
AcDbEntity
8
0
100
AcDbCircle
10
100
20
21.000000000000007
30
0
40
12.499999999999984
210
0
220
-0
230
1
0
CIRCLE
5
109
100
AcDbEntity
8
0
100
AcDbCircle
10
115.5
20
5.5000000000000249
30
0
40
1.7000000000000071
210
0
220
-0
230
1
0
CIRCLE
5
110
100
AcDbEntity
8
0
100
AcDbCircle
10
115.5
20
36.500000000000021
30
0
40
1.7000000000000004
210
0
220
-0
230
1
0
CIRCLE
5
111
100
AcDbEntity
8
0
100
AcDbCircle
10
84.5
20
36.500000000000021
30
0
40
1.7000000000000004
210
0
220
-0
230
1
0
CIRCLE
5
112
100
AcDbEntity
8
0
100
AcDbCircle
10
59.999999999999964
20
76
30
0
40
2.6499999999999995
210
0
220
0
230
1
0
CIRCLE
5
113
100
AcDbEntity
8
0
100
AcDbCircle
10
77.499999999999986
20
75.999999999999986
30
0
40
4.0000000000000071
210
0
220
-0
230
1
0
ENDSEC
0
SECTION
2
OBJECTS
0
DICTIONARY
5
C
100
AcDbDictionary
3
ACAD_GROUP
350
D
3
ACAD_MLINESTYLE
350
17
0
DICTIONARY
5
D
100
AcDbDictionary
0
DICTIONARY
5
1A
330
C
100
AcDbDictionary
0
DICTIONARY
5
17
100
AcDbDictionary
0
ENDSEC
0
EOF
