0
SECTION
2
HEADER
9
$INSUNITS
70
4
9
$ACADVER
1
AC1014
9
$HANDSEED
5
FFFF
0
ENDSEC
0
SECTION
2
TABLES
0
TABLE
2
VPORT
5
8
100
AcDbSymbolTable
0
ENDTAB
0
TABLE
2
LTYPE
5
5
100
AcDbSymbolTable
0
LTYPE
5
14
100
AcDbSymbolTableRecord
100
AcDbLinetypeTableRecord
2
BYBLOCK
70
0
0
LTYPE
5
15
100
AcDbSymbolTableRecord
100
AcDbLinetypeTableRecord
2
BYLAYER
70
0
0
ENDTAB
0
TABLE
2
LAYER
5
2
100
AcDbSymbolTable
70
2
0
LAYER
5
50
100
AcDbSymbolTableRecord
100
AcDbLayerTableRecord
2
0
70
0
6
CONTINUOUS
0
ENDTAB
0
TABLE
2
STYLE
5
3
100
AcDbSymbolTable
70
1
0
STYLE
5
11
100
AcDbSymbolTableRecord
100
AcDbTextStyleTableRecord
2
STANDARD
70
0
0
ENDTAB
0
TABLE
2
VIEW
5
6
100
AcDbSymbolTable
70
0
0
ENDTAB
0
TABLE
2
UCS
5
7
100
AcDbSymbolTable
70
0
0
ENDTAB
0
TABLE
2
APPID
5
9
100
AcDbSymbolTable
70
2
0
APPID
5
12
100
AcDbSymbolTableRecord
100
AcDbRegAppTableRecord
2
ACAD
70
0
0
ENDTAB
0
TABLE
2
DIMSTYLE
5
A
100
AcDbSymbolTable
70
1
0
ENDTAB
0
TABLE
2
BLOCK_RECORD
5
1
100
AcDbSymbolTable
70
1
0
BLOCK_RECORD
5
1F
100
AcDbSymbolTableRecord
100
AcDbBlockTableRecord
2
*MODEL_SPACE
0
BLOCK_RECORD
5
1B
100
AcDbSymbolTableRecord
100
AcDbBlockTableRecord
2
*PAPER_SPACE
0
ENDTAB
0
ENDSEC
0
SECTION
2
BLOCKS
0
BLOCK
5
20
100
AcDbEntity
100
AcDbBlockBegin
2
*MODEL_SPACE
0
ENDBLK
5
21
100
AcDbEntity
100
AcDbBlockEnd
0
BLOCK
5
1C
100
AcDbEntity
100
AcDbBlockBegin
2
*PAPER_SPACE
0
ENDBLK
5
1D
100
AcDbEntity
100
AcDbBlockEnd
0
ENDSEC
0
SECTION
2
ENTITIES
0
LINE
5
100
100
AcDbEntity
8
0
100
AcDbLine
10
-89.999999999999702
20
-0.99999999999995648
30
0
11
-89.999999999999702
21
51.525000000000048
31
0
0
ARC
5
101
100
AcDbEntity
8
0
100
AcDbCircle
10
-88.999999999999702
20
51.525000000000063
30
0
40
0.99999999999998757
210
0
220
-0
230
1
100
AcDbArc
50
90
51
180
0
LINE
5
102
100
AcDbEntity
8
0
100
AcDbLine
10
-88.999999999999702
20
52.525000000000048
30
0
11
-83.999999999999716
21
52.525000000000048
31
0
0
LINE
5
103
100
AcDbEntity
8
0
100
AcDbLine
10
-83.999999999999503
20
52.236324865405251
30
0
11
-83.999999999999716
21
52.525000000000048
31
0
0
LINE
5
104
100
AcDbEntity
8
0
100
AcDbLine
10
-83.999999999999503
20
49.525000000000048
30
0
11
-83.999999999999503
21
52.236324865405251
31
0
0
LINE
5
105
100
AcDbEntity
8
0
100
AcDbLine
10
-75.999999999999574
20
49.525000000000041
30
0
11
-83.999999999999503
21
49.525000000000048
31
0
0
LINE
5
106
100
AcDbEntity
8
0
100
AcDbLine
10
-75.999999999999574
20
52.236324865405244
30
0
11
-75.999999999999574
21
49.525000000000041
31
0
0
LINE
5
107
100
AcDbEntity
8
0
100
AcDbLine
10
-75.999999999999574
20
52.236324865405244
30
0
11
-75.999999999999744
21
52.525000000000041
31
0
0
LINE
5
108
100
AcDbEntity
8
0
100
AcDbLine
10
-75.999999999999744
20
52.525000000000041
30
0
11
-73.126189718156184
21
52.525000000000041
31
0
0
LINE
5
109
100
AcDbEntity
8
0
100
AcDbLine
10
-69.999999999999744
20
53.525000000000027
30
0
11
-69.999999999999744
21
54.625000000000014
31
0
0
ARC
5
110
100
AcDbEntity
8
0
100
AcDbCircle
10
-68.999999999999758
20
54.625000000000021
30
0
40
0.99999999999997868
210
0
220
-0
230
1
100
AcDbArc
50
89.99999999999919
51
180
0
CIRCLE
5
111
100
AcDbEntity
8
0
100
AcDbCircle
10
-79.99999999999973
20
40.125000000000057
30
0
40
4.0000000000000036
210
0
220
-0
230
1
0
CIRCLE
5
112
100
AcDbEntity
8
0
100
AcDbCircle
10
-55.499999999999822
20
47.125
30
0
40
1.7000000000000071
210
0
220
0
230
1
0
LINE
5
113
100
AcDbEntity
8
0
100
AcDbLine
10
-68.999999999999744
20
55.625
30
0
11
-62.499999999999758
21
55.625000000000007
31
0
0
ARC
5
114
100
AcDbEntity
8
0
100
AcDbCircle
10
-62.499999999999773
20
56.625000000000014
30
0
40
1.0000000000000053
210
0
220
0
230
1
100
AcDbArc
50
-89.99999999999919
51
0
0
LINE
5
115
100
AcDbEntity
8
0
100
AcDbLine
10
-61.499999999999773
20
56.625000000000014
30
0
11
-61.49999999999978
21
83.625000000000043
31
0
0
ARC
5
116
100
AcDbEntity
8
0
100
AcDbCircle
10
-62.499999999999787
20
83.625000000000043
30
0
40
1.0000000000000053
210
0
220
0
230
1
100
AcDbArc
50
0
51
90
0
CIRCLE
5
117
100
AcDbEntity
8
0
100
AcDbCircle
10
-55.499999999999829
20
78.125000000000028
30
0
40
1.7000000000000071
210
0
220
0
230
1
0
CIRCLE
5
118
100
AcDbEntity
8
0
100
AcDbCircle
10
-39.999999999999858
20
62.625000000000014
30
0
40
12.499999999999998
210
0
220
0
230
1
0
LINE
5
119
100
AcDbEntity
8
0
100
AcDbLine
10
-62.499999999999787
20
84.625000000000043
30
0
11
-68.999999999999787
21
84.625000000000043
31
0
0
ARC
5
120
100
AcDbEntity
8
0
100
AcDbCircle
10
-68.999999999999773
20
83.625000000000043
30
0
40
0.99999999999999645
210
0
220
0
230
1
100
AcDbArc
50
90.00000000000081
51
180
0
LINE
5
121
100
AcDbEntity
8
0
100
AcDbLine
10
-69.999999999999773
20
83.625000000000043
30
0
11
-69.999999999999773
21
73.725000000000037
31
0
0
ARC
5
122
100
AcDbEntity
8
0
100
AcDbCircle
10
-70.999999999999773
20
73.725000000000037
30
0
40
0.99999999999999645
210
0
220
0
230
1
100
AcDbArc
50
-90
51
0
0
LINE
5
123
100
AcDbEntity
8
0
100
AcDbLine
10
-70.999999999999773
20
72.725000000000051
30
0
11
-75.999999999999744
21
72.725000000000051
31
0
0
LINE
5
124
100
AcDbEntity
8
0
100
AcDbLine
10
-75.999999999999602
20
73.013675134594834
30
0
11
-75.999999999999744
21
72.725000000000051
31
0
0
LINE
5
125
100
AcDbEntity
8
0
100
AcDbLine
10
-75.999999999999602
20
75.725000000000037
30
0
11
-75.999999999999602
21
73.013675134594834
31
0
0
LINE
5
126
100
AcDbEntity
8
0
100
AcDbLine
10
-83.999999999999517
20
75.725000000000051
30
0
11
-75.999999999999602
21
75.725000000000037
31
0
0
LINE
5
127
100
AcDbEntity
8
0
100
AcDbLine
10
-83.999999999999517
20
73.013675134594848
30
0
11
-83.999999999999517
21
75.725000000000051
31
0
0
LINE
5
128
100
AcDbEntity
8
0
100
AcDbLine
10
-83.999999999999517
20
73.013675134594848
30
0
11
-83.999999999999716
21
72.725000000000065
31
0
0
LINE
5
129
100
AcDbEntity
8
0
100
AcDbLine
10
-83.999999999999716
20
72.725000000000065
30
0
11
-88.999999999999702
21
72.725000000000065
31
0
0
ARC
5
130
100
AcDbEntity
8
0
100
AcDbCircle
10
-88.999999999999702
20
73.725000000000051
30
0
40
0.99999999999999645
210
0
220
0
230
1
100
AcDbArc
50
180
51
270
0
LINE
5
131
100
AcDbEntity
8
0
100
AcDbLine
10
-89.999999999999702
20
73.725000000000051
30
0
11
-89.999999999999702
21
108.00000000000004
31
0
0
CIRCLE
5
132
100
AcDbEntity
8
0
100
AcDbCircle
10
-79.99999999999973
20
85.125000000000043
30
0
40
4.0000000000000036
210
0
220
-0
230
1
0
CIRCLE
5
133
100
AcDbEntity
8
0
100
AcDbCircle
10
-79.999999999999744
20
99.000000000000057
30
0
40
2.6499999999999995
210
0
220
0
230
1
0
ARC
5
134
100
AcDbEntity
8
0
100
AcDbCircle
10
-88.999999999999716
20
108.00000000000004
30
0
40
0.99999999999999645
210
0
220
-0
230
1
100
AcDbArc
50
90
51
180
0
LINE
5
135
100
AcDbEntity
8
0
100
AcDbLine
10
-88.999999999999716
20
109.00000000000004
30
0
11
-0.99999999999997868
21
109
31
0
0
CIRCLE
5
136
100
AcDbEntity
8
0
100
AcDbCircle
10
-9.9999999999999556
20
99
30
0
40
2.6499999999999995
210
0
220
0
230
1
0
ARC
5
137
100
AcDbEntity
8
0
100
AcDbCircle
10
-0.99999999999997813
20
107.99999999999999
30
0
40
0.99999999999999711
210
0
220
0
230
1
100
AcDbArc
50
0
51
90.000000000000014
0
CIRCLE
5
138
100
AcDbEntity
8
0
100
AcDbCircle
10
-12.499999999999991
20
86.5
30
0
40
1.4999999999999993
210
0
220
-0
230
1
0
CIRCLE
5
139
100
AcDbEntity
8
0
100
AcDbCircle
10
-9.9999999999999378
20
-12.000000000000012
30
0
40
2.6499999999999995
210
0
220
0
230
1
0
ARC
5
140
100
AcDbEntity
8
0
100
AcDbCircle
10
-0.99999999999996092
20
-21.000000000000021
30
0
40
0.99999999999999645
210
0
220
0
230
1
100
AcDbArc
50
-90
51
0
0
LINE
5
141
100
AcDbEntity
8
0
100
AcDbLine
10
-0.99999999999996081
20
-22.000000000000021
30
0
11
-68.999999999999744
21
-21.999999999999972
31
0
0
ARC
5
142
100
AcDbEntity
8
0
100
AcDbCircle
10
-68.999999999999758
20
-20.999999999999972
30
0
40
0.99999999999999645
210
0
220
0
230
1
100
AcDbArc
50
180
51
270.0000000000008
0
LINE
5
143
100
AcDbEntity
8
0
100
AcDbLine
10
-69.999999999999744
20
-20.999999999999972
30
0
11
-69.999999999999758
21
-4.1213203435597636
31
0
0
CIRCLE
5
144
100
AcDbEntity
8
0
100
AcDbCircle
10
-59.999999999999773
20
-11.999999999999977
30
0
40
2.6499999999999995
210
0
220
0
230
1
0
LINE
5
145
100
AcDbEntity
8
0
100
AcDbLine
10
-72.121320343559248
20
-1.999999999999968
30
0
11
-88.999999999999702
21
-1.9999999999999583
31
0
0
ARC
5
146
100
AcDbEntity
8
0
100
AcDbCircle
10
-88.999999999999702
20
-0.99999999999996259
30
0
40
0.99999999999999645
210
0
220
0
230
1
100
AcDbArc
50
180
51
270
0
CIRCLE
5
147
100
AcDbEntity
8
0
100
AcDbCircle
10
-79.99999999999973
20
10.500000000000039
30
0
40
4.0000000000000036
210
0
220
-0
230
1
0
CIRCLE
5
148
100
AcDbEntity
8
0
100
AcDbCircle
10
-24.499999999999893
20
47.124999999999986
30
0
40
1.6999999999999931
210
0
220
0
230
1
0
CIRCLE
5
149
100
AcDbEntity
8
0
100
AcDbCircle
10
-24.499999999999893
20
78.125
30
0
40
1.7000000000000213
210
0
220
0
230
1
0
LINE
5
150
100
AcDbEntity
8
0
100
AcDbLine
10
-2.5
20
44.999999999999993
30
0
11
0
21
44.999999999999993
31
0
0
LINE
5
151
100
AcDbEntity
8
0
100
AcDbLine
10
-2.5
20
41.999999999999986
30
0
11
0
21
41.999999999999986
31
0
0
LINE
5
152
100
AcDbEntity
8
0
100
AcDbLine
10
-3.2322330470335814
20
2.7322330470336151
30
0
11
0
21
2.7322330470336151
31
0
0
LINE
5
153
100
AcDbEntity
8
0
100
AcDbLine
10
-3.2322330470335814
20
-0.26776695296638481
30
0
11
0
21
-0.26776695296638481
31
0
0
LINE
5
154
100
AcDbEntity
8
0
100
AcDbLine
10
-3.232233047033688
20
87.267766952966383
30
0
11
0
21
87.267766952966383
31
0
0
LINE
5
155
100
AcDbEntity
8
0
100
AcDbLine
10
-3.232233047033688
20
84.267766952966383
30
0
11
0
21
84.267766952966383
31
0
0
ARC
5
156
100
AcDbEntity
8
0
100
AcDbCircle
10
-3.232233047033688
20
85.767766952966383
30
0
40
1.5000000000000036
210
0
220
-0
230
1
100
AcDbArc
50
90
51
270
0
LINE
5
157
100
AcDbEntity
8
0
100
AcDbLine
10
1.9012569296705806e-14
20
107.99999999999999
30
0
11
0
21
87.267766952966383
31
0
0
ARC
5
158
100
AcDbEntity
8
0
100
AcDbCircle
10
-2.5
20
43.499999999999986
30
0
40
1.5000000000000036
210
0
220
-0
230
1
100
AcDbArc
50
90
51
270
0
LINE
5
159
100
AcDbEntity
8
0
100
AcDbLine
10
0
20
84.267766952966383
30
0
11
0
21
44.999999999999993
31
0
0
ARC
5
160
100
AcDbEntity
8
0
100
AcDbCircle
10
-3.2322330470335814
20
1.2322330470336151
30
0
40
1.5000000000000002
210
0
220
-0
230
1
100
AcDbArc
50
90
51
270
0
LINE
5
161
100
AcDbEntity
8
0
100
AcDbLine
10
0
20
41.999999999999986
30
0
11
0
21
2.7322330470336151
31
0
0
LINE
5
162
100
AcDbEntity
8
0
100
AcDbLine
10
0
20
-0.26776695296638481
30
0
11
3.2409846641396555e-14
21
-21.000000000000014
31
0
0
LINE
5
163
100
AcDbEntity
8
0
100
AcDbLine
10
-67.828427124745772
20
2.2928932188134827
30
0
11
-72.121320343559248
21
-1.999999999999968
31
0
0
LINE
5
164
100
AcDbEntity
8
0
100
AcDbLine
10
-65.707106781186141
20
0.17157287525383341
30
0
11
-69.999999999999758
21
-4.1213203435597636
31
0
0
ARC
5
165
100
AcDbEntity
8
0
100
AcDbCircle
10
-66.767766952965957
20
1.2322330470336595
30
0
40
1.5000000000000022
210
-0
220
0
230
1
100
AcDbArc
50
-45.000000000000306
51
134.9999999999998
0
LINE
5
166
100
AcDbEntity
8
0
100
AcDbLine
10
-66.439339828219801
20
50.080790797182964
30
0
11
-69.999999999999744
21
53.525000000000027
31
0
0
LINE
5
167
100
AcDbEntity
8
0
100
AcDbLine
10
-68.56066017177946
20
47.959470453623318
30
0
11
-73.126189718156184
21
52.525000000000041
31
0
0
ARC
5
168
100
AcDbEntity
8
0
100
AcDbCircle
10
-67.499999999999631
20
49.020130625403141
30
0
40
1.5000000000000098
210
0
220
0
230
1
100
AcDbArc
50
-135.0000000000002
51
46.904827665757963
0
ENDSEC
0
SECTION
2
OBJECTS
0
DICTIONARY
5
C
100
AcDbDictionary
3
ACAD_GROUP
350
D
3
ACAD_MLINESTYLE
350
17
0
DICTIONARY
5
D
100
AcDbDictionary
0
DICTIONARY
5
1A
330
C
100
AcDbDictionary
0
DICTIONARY
5
17
100
AcDbDictionary
0
ENDSEC
0
EOF
